<?xml version="1.0" standalone="no"?>
<!DOCTYPE svg PUBLIC "-//W3C//DTD SVG 20010904//EN"
 "http://www.w3.org/TR/2001/REC-SVG-20010904/DTD/svg10.dtd">
<svg version="1.0" xmlns="http://www.w3.org/2000/svg"
 width="270.000000pt" height="270.000000pt" viewBox="0 0 270.000000 270.000000"
 preserveAspectRatio="xMidYMid meet">
<metadata>
Created by potrace 1.11, written by Peter Selinger 2001-2013
</metadata>
<g transform="translate(0.000000,270.000000) scale(0.100000,-0.100000)"
fill="#000000" stroke="none">
<path d="M1526 2383 c-1 -1 -36 -4 -78 -7 -622 -44 -1135 -562 -1147 -1160 -2
-90 22 -269 39 -291 4 -5 11 -23 14 -40 8 -34 68 -145 106 -197 38 -51 140
-150 191 -186 97 -66 271 -140 370 -156 19 -3 45 -8 59 -11 92 -19 301 -25
420 -12 214 23 414 90 586 197 131 80 128 50 33 324 -45 130 -86 236 -90 236
-5 0 -39 -20 -76 -44 -174 -112 -380 -175 -559 -171 -200 5 -319 71 -387 214
-25 54 -30 77 -33 155 -3 110 11 171 67 285 67 135 185 238 329 287 40 14 84
19 165 19 100 0 115 -3 166 -27 77 -39 97 -82 74 -170 -8 -28 -12 -54 -10 -57
2 -5 486 -7 546 -2 11 1 19 20 28 69 7 37 15 78 18 92 21 105 29 174 26 225
-15 226 -269 386 -667 421 -79 7 -186 11 -190 7z"/>
</g>
</svg>
